<svg xmlns="http://www.w3.org/2000/svg" viewBox="0 0 192 192" width="192" height="192">
  <rect width="192" height="192" fill="#0f1a0f"/>
  <!-- Pixel sword — centered -->
  <!-- Blade -->
  <rect x="88" y="20" width="16" height="8" fill="#c8e870"/>
  <rect x="88" y="28" width="16" height="8" fill="#c8e870"/>
  <rect x="88" y="36" width="16" height="8" fill="#c8e870"/>
  <rect x="88" y="44" width="16" height="8" fill="#c8e870"/>
  <rect x="88" y="52" width="16" height="8" fill="#c8e870"/>
  <rect x="88" y="60" width="16" height="8" fill="#c8e870"/>
  <rect x="88" y="68" width="16" height="8" fill="#c8e870"/>
  <rect x="88" y="76" width="16" height="8" fill="#8bcc50"/>
  <!-- Guard -->
  <rect x="64" y="84" width="64" height="12" fill="#8bcc50"/>
  <!-- Handle -->
  <rect x="88" y="96" width="16" height="8" fill="#5a9e3a"/>
  <rect x="88" y="104" width="16" height="8" fill="#5a9e3a"/>
  <rect x="88" y="112" width="16" height="8" fill="#5a9e3a"/>
  <rect x="88" y="120" width="16" height="8" fill="#5a9e3a"/>
  <!-- Pommel -->
  <rect x="80" y="128" width="32" height="12" fill="#2d6a2d"/>
  <!-- Stars -->
  <rect x="32" y="40" width="8" height="8" fill="#c8e870"/>
  <rect x="152" y="40" width="8" height="8" fill="#c8e870"/>
  <rect x="40" y="48" width="8" height="8" fill="#c8e870"/>
  <rect x="144" y="48" width="8" height="8" fill="#c8e870"/>
  <rect x="32" y="56" width="8" height="8" fill="#c8e870"/>
  <rect x="152" y="56" width="8" height="8" fill="#c8e870"/>
  <!-- Bottom text area -->
  <rect x="20" y="155" width="152" height="4" fill="#2d6a2d"/>
  <rect x="20" y="163" width="152" height="4" fill="#1a3a1a"/>
  <rect x="20" y="171" width="152" height="4" fill="#2d6a2d"/>
</svg>
