<svg xmlns="http://www.w3.org/2000/svg" viewBox="0 0 512 512" width="512" height="512">
  <rect width="512" height="512" fill="#0f1a0f"/>
  <!-- Pixel sword — scaled up 2.67x from 192 version -->
  <!-- Blade -->
  <rect x="235" y="54" width="42" height="21" fill="#c8e870"/>
  <rect x="235" y="75" width="42" height="21" fill="#c8e870"/>
  <rect x="235" y="96" width="42" height="21" fill="#c8e870"/>
  <rect x="235" y="117" width="42" height="21" fill="#c8e870"/>
  <rect x="235" y="138" width="42" height="21" fill="#c8e870"/>
  <rect x="235" y="159" width="42" height="21" fill="#c8e870"/>
  <rect x="235" y="180" width="42" height="21" fill="#c8e870"/>
  <rect x="235" y="201" width="42" height="21" fill="#8bcc50"/>
  <!-- Guard -->
  <rect x="171" y="222" width="170" height="32" fill="#8bcc50"/>
  <!-- Handle -->
  <rect x="235" y="254" width="42" height="21" fill="#5a9e3a"/>
  <rect x="235" y="275" width="42" height="21" fill="#5a9e3a"/>
  <rect x="235" y="296" width="42" height="21" fill="#5a9e3a"/>
  <rect x="235" y="317" width="42" height="21" fill="#5a9e3a"/>
  <!-- Pommel -->
  <rect x="213" y="338" width="86" height="32" fill="#2d6a2d"/>
  <!-- Stars -->
  <rect x="85" y="107" width="21" height="21" fill="#c8e870"/>
  <rect x="405" y="107" width="21" height="21" fill="#c8e870"/>
  <rect x="107" y="128" width="21" height="21" fill="#c8e870"/>
  <rect x="384" y="128" width="21" height="21" fill="#c8e870"/>
  <rect x="85" y="149" width="21" height="21" fill="#c8e870"/>
  <rect x="405" y="149" width="21" height="21" fill="#c8e870"/>
  <!-- Bottom decoration -->
  <rect x="54" y="414" width="404" height="10" fill="#2d6a2d"/>
  <rect x="54" y="434" width="404" height="10" fill="#1a3a1a"/>
  <rect x="54" y="454" width="404" height="10" fill="#2d6a2d"/>
</svg>
